<?xml version="1.0" encoding="utf-8"?>
<!-- Generator: Adobe Illustrator 23.0.1, SVG Export Plug-In . SVG Version: 6.00 Build 0)  -->
<svg version="1.1" id="Layer_1" xmlns="http://www.w3.org/2000/svg" xmlns:xlink="http://www.w3.org/1999/xlink" x="0px" y="0px"
	 viewBox="0 0 617 172.2" style="enable-background:new 0 0 617 172.2;" xml:space="preserve">
<style type="text/css">
	.st0{fill:#302F2F;}
</style>
<g>
	<g>
		<g>
			<g>
				<path class="st0" d="M274.1,131.9C274.1,131.9,274,131.9,274.1,131.9L274.1,131.9c-2.3-1.2-5-0.3-6.2,1.9c0,0,0,0,0,0l-7.7,14.7
					c-37.6-40-59.5-104.9-61.8-112.1V16.9c0-2.5-2-4.6-4.6-4.6s-4.6,2-4.6,4.6v15.8H87.7V17c0-2.5-2-4.6-4.6-4.6
					c-2.5,0-4.6,2-4.6,4.6v19.5c-2.7,7.9-30.1,83.7-61.2,112.1l-4.2-12c-0.8-2.4-3.4-3.6-5.8-2.8c-2.4,0.8-3.6,3.4-2.8,5.8l6.3,18.2
					c0.1,0.2,0.2,0.4,0.3,0.5c0.1,0.2,0.2,0.5,0.4,0.7c0.3,0.2,0.5,0.4,0.8,0.5l0.5,0.5c0.3,0.2,0.5,0.3,0.8,0.4h0.5
					c0.5,0.1,0.9,0.1,1.4,0h245.8c0.4,0.1,0.8,0.1,1.2,0h0.4l0.7-0.4l0.4-0.3l0.5-0.5l0.3-0.5l0.3-0.4l10.6-20.3
					C277.1,135.8,276.3,133.1,274.1,131.9z M126.3,149.1l-6.1-13.7c-1-2.3-3.7-3.3-6-2.3c-2.3,1-3.3,3.7-2.3,6l5.6,12.6h-90
					c29.3-30.4,53.5-94.8,59-109.9l0,0h101.7C180.7,60.4,152.8,126.7,126.3,149.1z M189.3,151.7h-52.4c21-21.2,41-63.1,52.4-89.1
					V151.7z M198.4,151.7V62.8c9.8,24,27.4,61,52.3,88.9H198.4z"/>
			</g>
		</g>
	</g>
</g>
<g>
	<g>
		<path class="st0" d="M331.6,40.1v1.7h-2.9V40c0-10.9-4.1-20.1-16-20.1c-12.1,0-16.1,9.1-16.1,19.9c0,23.5,35.2,22.8,35.2,47.8
			c0,12.7-5.2,22.8-19.3,22.8c-13.9,0-19.2-10.1-19.2-22.8v-4.5h2.8v4.6c0,11.2,4.3,19.9,16.4,19.9c12.1,0,16.4-8.8,16.4-19.9
			c0-23.2-35.2-22.4-35.2-47.7c0-13.4,5.6-22.6,18.9-22.7C326.5,17.3,331.6,27.5,331.6,40.1z"/>
		<path class="st0" d="M345.4,87.2c0,11,3.9,20.6,16.1,20.6c12.2,0,16.1-9.6,16.1-20.6V18h2.8v69.1c0,12.6-5,23.4-18.9,23.4
			c-14,0-19-10.8-19-23.4V18h2.9V87.2z"/>
		<path class="st0" d="M420,109.5h-3.3l-22.7-87.2v87.5h-2.6V18h4.5l22.6,87.1L441,18h4.5v91.8h-2.9V22.3L420,109.5z"/>
		<path class="st0" d="M485.2,109.5H482l-22.7-87.2v87.5h-2.6V18h4.5l22.6,87.1L506.2,18h4.5v91.8h-2.9V22.3L485.2,109.5z"/>
		<path class="st0" d="M551.7,61.9v2.6h-27V107h32.1v2.8h-35V18h35v2.8h-32.1v41.2H551.7z"/>
		<path class="st0" d="M586,18c13.6,0,18.9,8,18.9,20.6v8.3c0,11.3-4.5,17.4-14.6,19.3c10.2,1.6,14.6,8.3,14.6,18.4v14.4
			c0,3.5,0.4,8,2.5,10.9h-3.1c-1.8-2.9-2.2-7-2.2-10.9V84.5c0-13.5-8.1-17.1-20.1-17.1h-11.3v42.4h-2.9V18H586z M581.9,64.7
			c12.7,0,20.1-3.3,20.1-17.4v-8.4c0-11.2-4.3-18.1-16.1-18.1h-15.2v43.9H581.9z"/>
	</g>
	<g>
		<path class="st0" d="M324.8,126.5c4.9,0,6.5,2.5,6.5,7v2.2c0,3.8-1,6-4.8,6.6c4,0.6,5.5,3.3,5.5,7.3v3c0,4.8-2,7.8-7.2,7.8h-6.8
			v-33.9H324.8z M323.5,141.9c4.7,0,6.8-1.1,6.8-6v-2.3c0-4-1.2-6-5.5-6h-5.7v14.4H323.5z M324.9,159.4c4.5,0,6.1-2.5,6.1-6.8v-3
			c0-4.9-2.3-6.7-7-6.7h-4.9v16.5H324.9z"/>
		<path class="st0" d="M350.3,134.9c0-5.6,2.5-8.6,7.2-8.6c4.8,0,7.3,3,7.3,8.6v17.2c0,5.6-2.5,8.6-7.3,8.6c-4.7,0-7.2-3-7.2-8.6
			V134.9z M351.3,152.1c0,5,2.1,7.5,6.1,7.5c4.1,0,6.2-2.6,6.2-7.5v-17.3c0-5-2.1-7.5-6.2-7.5c-4,0-6.1,2.6-6.1,7.5V152.1z"/>
		<path class="st0" d="M383,134.9c0-5.6,2.5-8.6,7.2-8.6c4.8,0,7.3,3,7.3,8.6v17.2c0,5.6-2.5,8.6-7.3,8.6c-4.7,0-7.2-3-7.2-8.6
			V134.9z M384,152.1c0,5,2.1,7.5,6.1,7.5c4.1,0,6.2-2.6,6.2-7.5v-17.3c0-5-2.1-7.5-6.2-7.5c-4,0-6.1,2.6-6.1,7.5V152.1z"/>
		<path class="st0" d="M422.3,160.4v-32.9h-7.4v-1h15.9v1h-7.4v32.9H422.3z"/>
		<path class="st0" d="M462.5,134.9v2.6h-1.1v-2.7c0-4.1-1.5-7.5-6-7.5c-4.5,0-6,3.4-6,7.5v17.3c0,4.1,1.5,7.5,6,7.5
			c4.5,0,6-3.4,6-7.5v-3.7h1.1v3.7c0,4.7-1.9,8.6-7.1,8.6c-5.1,0-7.1-3.9-7.1-8.6v-17.2c0-4.7,1.9-8.6,7.1-8.6
			C460.5,126.3,462.5,130.2,462.5,134.9z"/>
		<path class="st0" d="M483.6,152.4l-2,8h-1l8.2-33.9h1.5l8.4,33.9h-1.1l-2-8H483.6z M483.8,151.5h11.7l-5.9-23.7L483.8,151.5z"/>
		<path class="st0" d="M527.4,160.3h-1.2l-8.4-32.2v32.3h-1v-33.9h1.6l8.3,32.1l8.3-32.1h1.6v33.9h-1.1v-32.3L527.4,160.3z"/>
		<path class="st0" d="M561.9,126.5c5.2,0,7,3.4,7,8.2v3.4c0,5.4-2.4,7.9-7.8,7.9h-4.8v14.4h-1.1v-33.9H561.9z M561.1,145
			c4.7,0,6.7-2.1,6.7-6.9v-3.5c0-4.2-1.4-7.1-6-7.1h-5.6V145H561.1z"/>
	</g>
</g>
</svg>
